<svg id="Capa_1" data-name="Capa 1" xmlns="http://www.w3.org/2000/svg" viewBox="0 0 447.55 510.8"><defs><style>.cls-1{fill:#fff;}</style></defs><title>calorias</title><path class="cls-1" d="M227.6,0c10.1,5.3,20.6,9.8,30.2,15.9,13.3,8.5,23.8,19.8,27.9,35.7a58.47,58.47,0,0,1,1.6,13.8c.2,15.8,0,31.6.1,47.4,0,9.7,9.1,17,18.3,13.8a56.59,56.59,0,0,0,17.1-9.6c11.5-9.5,25-6.1,28.4,8.4,5.5,23.9,11.6,47.8,15,72.1,4.4,31.7-6.3,59.6-27,83.7-1.5,1.8-3.1,3.4-5.5,6.1h95.4c29.4,0,49.9,20.5,49.9,49.8q.15,61.95,0,123.7c0,29.4-20.6,50-49.8,50H81.4c-29.1,0-49.7-20.4-49.8-49.5q-.15-62.4,0-124.7c.1-29.2,20.6-49.4,49.8-49.4h94.8a7.81,7.81,0,0,0-1.1-2c-29-30.5-36.5-66.8-29-107.1,4.7-25.7,16-48.7,27.9-71.7,9.5-18.2,18.9-36.6,26.7-55.6,4-9.8,5.5-20.9,6.3-31.6.9-9.2,4-15.7,12.7-19.2Zm27.8,319.3H82.8c-13.3,0-19.1,5.8-19.1,19V460.5c0,12.5,6.1,18.5,18.8,18.5H428.2c12.9,0,19-6.1,19-18.9V338.4c0-13.3-5.9-19.2-19.1-19.2H255.4ZM237,40.3c-6.5,27.4-17.5,51.7-31,75.2a395,395,0,0,0-19.9,40.2c-8.8,20.6-13,42.2-9.6,64.7,5.6,37.2,38.4,65.9,76.4,67,38.3,1.1,72.5-25.8,80.5-62.8,3.5-16.2.1-31.7-2.7-47.4-1.4-7.8-3.4-15.4-5.1-23.3l-3.6,1.5c-34.8,14.4-68.1-11.2-66.8-44.8.6-14.1-.4-28.3.2-42.4C256.1,54.4,247.6,47.3,237,40.3Z" transform="translate(-31.53)"/><path class="cls-1" d="M367.2,415.2c0,10.3.1,20.6,0,30.9-.2,14.1-13.1,21.1-25.3,14.1-1.6-.9-4.3-.7-6.2,0-27.8,9.8-57.3-6.4-63.4-35.2-3.7-17.9,1.4-33.5,15-45.5s29.6-15.2,47-9.7c3.4,1.1,6,1.6,9.6-.5,10.4-6.1,23,1.6,23.3,14C367.4,393.9,367.2,404.6,367.2,415.2Zm-63.8-.3a16.42,16.42,0,1,0,18.2-15.7,8.1,8.1,0,0,0-2.2,0A15.79,15.79,0,0,0,303.4,414.9Z" transform="translate(-31.53)"/><path class="cls-1" d="M129,391.5c6.4-6.6,12.8-13.4,19.4-19.8,4.7-4.6,10.4-5.7,16.6-3.4,6,2.2,9.4,6.7,10.2,13,.7,5.5-1.3,10.1-5.2,13.9l-20,19.7c2.5,2.6,4.8,4.9,7.1,7.2,4.6,4.6,9.3,9,13.7,13.8a16,16,0,0,1-22.6,22.5l-.1-.1c-5.6-5.2-10.8-10.8-16.3-16.2-1.1-1.1-2.3-2.2-4.4-4.1,0,3.6.1,6.2,0,8.8-.5,9.4-7.3,16.3-16.2,16.2s-15.7-7-15.7-16.5q-.15-47.4,0-94.8c0-9.6,6.7-16.4,15.6-16.5,9.1-.1,16.1,6.8,16.2,16.6.2,12.9,0,25.9,0,38.8Z" transform="translate(-31.53)"/><path class="cls-1" d="M238.1,367.3c9.7-.1,17,6.4,17.3,15.5.3,8.7-6.5,15.8-15.9,16.5-9.8.7-16.1,7.2-16,16.2.1,8.7,6.6,15.1,16,15.8s16.2,7.7,15.9,16.4c-.4,9.1-7.7,15.6-17.3,15.5-25.3-.3-46.5-21.9-46.5-47.7C191.4,389.3,212.4,367.6,238.1,367.3Z" transform="translate(-31.53)"/><path class="cls-1" d="M415.2,399.1v46.3c0,10.5-6.7,17.8-16.1,17.7s-15.8-7.3-15.8-17.5V352.4c0-10.2,6.7-17.2,16-17.1s15.9,7.1,15.9,17.3Z" transform="translate(-31.53)"/></svg>