<svg id="Capa_1" data-name="Capa 1" xmlns="http://www.w3.org/2000/svg" viewBox="0 0 208.1 409.59"><defs><style>.cls-1{fill:#fff;}</style></defs><title>partesdelcuerpo</title><path class="cls-1" d="M178.4,410.4c-3.75-2.4-8-4.32-11.12-7.32-3.72-3.52-4.39-8.58-4.38-13.7.06-40.67,0-81.33.12-122,0-4-.79-6.19-5.09-6.67-3-.34-6-1.42-8.92-2.16-6.3-1.57-8.13-4.87-5.76-10.88,7.29-18.47,14.1-37.16,22.23-55.25,5.12-11.4,4.94-22.94,4.74-34.76a4.69,4.69,0,0,0-.94-2.51c-1.73-2.32-3.61-4.53-5.78-7.21-.54,1.28-1.14,2.49-1.6,3.75q-14.43,39.83-28.85,79.66c-2.94,8.06-8.21,11.91-15.7,11.87a15.82,15.82,0,0,1-15.27-20.07c1.17-4.22,2.83-8.32,4.31-12.45,11.69-32.6,23.25-65.26,35.24-97.75a72,72,0,0,1,9.62-17.35c6.17-8.44,15.07-12.69,25.53-12.8q28.8-.28,57.6,0c10.42.11,19.42,4.26,25.52,12.8a81.19,81.19,0,0,1,10.24,18.82c12.76,34.63,25.08,69.41,37.5,104.16a30.13,30.13,0,0,1,1.94,8.1A15.89,15.89,0,0,1,279.24,234c-2.39-5.49-4.32-11.18-6.36-16.82q-11.75-32.56-23.43-65.07c-.49-1.36-1.06-2.69-1.63-4.15-4.69,5-7.29,10.09-7.2,17.29a72.09,72.09,0,0,0,5.52,27.84c7.41,17.55,14.2,35.36,21.22,53.08,3.11,7.85,1.67,10.69-6.3,12.77-4.11,1.06-9.83,1-11.83,3.71-2.15,2.89-.93,8.38-.94,12.74q-.06,55.61,0,111.2c0,14-2.94,18.51-15.47,23.82h-8c-11.46-4.24-15.35-12.63-15.22-24.57.41-36.49.15-73,.15-109.47v-4.89h-8.26v118c0,10.37-4.43,16.63-14.17,20.28a3.77,3.77,0,0,0-.89.7Z" transform="translate(-101.5 -0.81)"/><path class="cls-1" d="M186.4,410.4a3.77,3.77,0,0,1,.89-.7c9.74-3.65,14.16-9.91,14.17-20.28V271.47h8.26v4.89c0,36.49.26,73-.15,109.47-.13,11.94,3.76,20.33,15.22,24.57Z" transform="translate(-101.5 -0.81)"/><path class="cls-1" d="M240.71,36.05a35.11,35.11,0,1,1-35-35.24A35.11,35.11,0,0,1,240.71,36.05Z" transform="translate(-101.5 -0.81)"/></svg>