<svg id="Capa_1" data-name="Capa 1" xmlns="http://www.w3.org/2000/svg" viewBox="0 0 286.65 409.66"><defs><style>.cls-1{fill:#fff;}</style></defs><title>descripcion</title><path class="cls-1" d="M332.67,0c8.05,2.74,14,7.51,15.68,16.36a32.54,32.54,0,0,1,.4,6q0,152.2.08,304.39a8.55,8.55,0,0,1-2.81,6.61c-24.67,24.54-49.23,49.2-73.93,73.7a9.16,9.16,0,0,1-5.79,2.47q-91.2.2-182.4.1c-13.47,0-21.72-8.22-21.72-21.68V22C62.18,10.5,67.83,3.57,78.32,0Zm-59,386c1.42-1.17,2.08-1.62,2.63-2.17q28.5-28.4,56.76-56.91c1.35-1.36,2-4,2-6q.13-148.79.08-297.57c0-7.94-1.71-9.67-9.55-9.67h-240c-8.17,0-9.79,1.62-9.79,9.82V386.22c0,8.13,1.64,9.75,9.87,9.75H260v-4.66c0-16.53-.07-33.06,0-49.59.07-11,7.38-20,17.83-20.59,12.08-.68,24.22-.16,36.59-.16v13.49H281.89c-5.92,0-8.19,2.32-8.24,8.28,0,6.93,0,13.86,0,20.8Z" transform="translate(-62.18)"/><path class="cls-1" d="M267,140.09c0,12.66-.09,25.32.07,38,0,2.7-.89,4-3.23,5.14-18.51,9.14-36.93,18.46-55.46,27.56a7.05,7.05,0,0,1-5.43.11c-18.66-9.14-37.2-18.53-55.83-27.73-2.35-1.16-3.2-2.48-3.19-5.15q.18-38,0-76c0-2.86,1-4.21,3.44-5.42C165.85,87.45,184.26,78.12,202.8,69a7,7,0,0,1,5.44,0c18.65,9.15,37.19,18.53,55.81,27.75a4.66,4.66,0,0,1,3,4.91C266.91,114.5,267,127.29,267,140.09Zm-109.3-25.23c0,19.34-.06,37.84.13,56.35,0,1.23,1.61,2.93,2.9,3.58q21,10.69,42.19,21a7.07,7.07,0,0,0,5.42,0c14-6.79,27.91-13.85,41.9-20.7a4.94,4.94,0,0,0,3.23-5.19c-.13-17.19-.06-34.37-.08-51.56a29.38,29.38,0,0,0-.34-3.1,17.39,17.39,0,0,0-1.82.81c-12.24,7.55-24.51,15-36.64,22.78-1.2.77-2.06,3-2.09,4.55-.19,10-.1,20-.1,30v5.92h-13.7v-4.55c0-10.39-.08-20.79.06-31.18a5.45,5.45,0,0,0-3-5.43c-11.4-6.88-22.68-14-34-21C160.59,116.4,159.43,115.85,157.67,114.86Zm88.7-11.8c-5.2-2.5-9.58-4.45-13.78-6.72-2.29-1.24-4-1-6.25.25-11.39,6.58-22.88,13-34.32,19.5-1,.55-1.86,1.23-3.21,2.13,5,3,9.59,5.68,14,8.56a4.34,4.34,0,0,0,5.39,0c8.53-5.41,17.18-10.65,25.77-16,3.9-2.38,7.8-4.87,12.35-7.72Zm-81.67,0c2.79,1.78,5,3,7,4.5,2.69,2.16,4.91,1.92,7.84.14,10.25-6.21,20.69-12.08,31-18.09,1.07-.62,2.1-1.32,3.62-2.28A54.47,54.47,0,0,0,208,84.07c-1.33-.5-3.21-.93-4.34-.38-12.84,6.21-25.55,12.62-39,19.36Z" transform="translate(-62.18)"/><path class="cls-1" d="M294.12,225.67v13H117v-13Z" transform="translate(-62.18)"/><path class="cls-1" d="M116.88,272.75V259.6h177v13.15Z" transform="translate(-62.18)"/><path class="cls-1" d="M294.07,293.88V307H116.91V293.88Z" transform="translate(-62.18)"/><path class="cls-1" d="M116.82,341.14V328.08h115.6v13.06Z" transform="translate(-62.18)"/><path class="cls-1" d="M246.16,41.19V54.33H164.78V41.19Z" transform="translate(-62.18)"/></svg>