<svg id="Capa_1" data-name="Capa 1" xmlns="http://www.w3.org/2000/svg" viewBox="0 0 384.07 322.65"><defs><style>.cls-1{fill:#fff;}</style></defs><title>mision</title><path class="cls-1" d="M468,499.5c-2.68,5.28-7,6.88-12.83,6.87q-179.6-.19-359.2-.19a16,16,0,0,1-8.66-2.48c-4.28-3-4.39-8.37-.93-13.37q15.15-21.87,30.39-43.68,29.31-42.15,58.61-84.3c5.57-8,11.16-8.51,18.09-1.59,7.15,7.13,14.26,14.31,21.55,21.63,1.14-1.06,2.07-1.86,2.94-2.72q43.08-43.08,86.2-86.13a8.57,8.57,0,0,0,2.79-6.88c-.17-7.47-.06-15-.06-23H218.63c-9.93,0-13.06-3.11-13.06-12.93q0-27.56,0-55.12c0-8.38,3.48-11.89,11.74-11.89h95.62c10.27,0,13.22,2.91,13.22,13.07,0,30.37,0,60.74.09,91.11a12.76,12.76,0,0,0,2.15,6.82Q396.09,391.42,464,488c1.43,2,2.7,4.16,4.05,6.24ZM314.74,308.72a35.05,35.05,0,0,1-2.95,4.12q-44,44.07-88,88.07c-6.25,6.24-11,6.23-17.26,0-6.71-6.69-13.39-13.41-20.43-20.47L112,487H439.87C398.21,427.65,356.91,368.8,314.74,308.72ZM225.08,203v41.29h81.54V203Z" transform="translate(-83.93 -183.72)"/></svg>