<svg id="Capa_1" data-name="Capa 1" xmlns="http://www.w3.org/2000/svg" viewBox="0 0 409.6 393.19"><defs><style>.cls-1{fill:#fff;}</style></defs><title>tiempo</title><path class="cls-1" d="M88.8,276.8c2.68-4.05,6.44-5.16,11.23-5.13,26.53.18,53.05,0,79.58.17,3.21,0,4.56-1,5.78-4,3.25-7.86,7-15.51,10.57-23.25l1.73-3.74h-7.2c-12.67,0-25.33,0-38,0-5.4,0-8.9-3-9.14-7.5-.28-5,3.47-8.47,9.38-8.48,16.66,0,33.32-.2,50,.1,4.6.08,7.42-1.38,10.36-4.9,22.3-26.71,50.47-44.27,84.19-52.83,3.21-.82,4.39-2.05,4.16-5.37-.3-4.24-.16-8.53,0-12.79.07-2.11-.47-3.27-2.64-4.14-13-5.19-20-17.3-17.71-30.14,2.39-13.31,13.22-22.38,27.55-22.53,18.53-.2,37.06-.15,55.58,0,14.88.1,25.7,9,28.18,22.78,2.32,12.91-5.16,25.08-18.66,30.36-.48.18-.94.4-1.65.71,0,6-.17,12,.16,18,.05,1,2,2.49,3.36,2.83,18,4.56,34.94,11.58,50.25,22.07q63.45,43.44,71.88,120a24.8,24.8,0,0,0,.71,3v23.2C497,343.46,496,351.8,494.21,360a156.14,156.14,0,0,1-21.33,51c-2.79,4.33-7.43,5.6-11.34,3.18s-4.89-7.24-2.16-11.59a148.49,148.49,0,0,0,20.77-53.71C494.7,267.05,436.73,189,354.25,179.34A145.54,145.54,0,0,0,193.92,295.68C178.08,375.05,231.63,453.51,311.1,467c36.78,6.22,71.34-.08,103.19-19.92.68-.42,1.35-.86,2.06-1.23,4.15-2.16,8.54-1.1,10.87,2.6s1.4,8-2.47,10.87c-1.61,1.19-3.32,2.24-5,3.27-75.23,45.24-174.65,21-220.29-53.92-4.62-7.59-8.31-15.77-12.08-23.84-1.25-2.68-2.53-3.81-5.57-3.78-16.66.15-33.33.08-50,.06a24.52,24.52,0,0,1-4.78-.27,7.7,7.7,0,0,1-6.12-7.83,7.58,7.58,0,0,1,6.06-7.44,27,27,0,0,1,5.17-.37q21.58,0,43.19,0h4.9c-.29-1.78-.51-3.14-.72-4.5C178.31,353,177,345.4,176,337.74c-.31-2.59-1.17-3.38-3.67-3.35-9.6.1-19.2,0-28.8,0a37.9,37.9,0,0,1-4-.1c-4.45-.46-7.5-3.7-7.52-7.88a7.77,7.77,0,0,1,7.82-7.95c10.12-.18,20.26-.31,30.39,0,4.2.13,5.34-1.22,5.62-5.28.58-8.34,1.83-16.64,2.87-25.45h-4.47c-24.67,0-49.33-.08-74,.07-4.9,0-8.86-1.08-11.5-5.43Zm248-146.2v0c9.6,0,19.2.15,28.8-.06a11,11,0,0,0,11-10.94,10.73,10.73,0,0,0-10.67-11.21q-29.19-.36-58.39,0a10.62,10.62,0,0,0-10.73,9.88c-.63,6.88,4.23,12.21,11.59,12.33C317.86,130.72,327.33,130.6,336.79,130.6Zm19,32.16V146.87H317.64v15.89Z" transform="translate(-88.8 -92.14)"/><path class="cls-1" d="M88.8,370.4c2-1.62,3.71-3.85,6-4.72,3.79-1.45,7.6.62,9.19,4.16a8,8,0,0,1-2.69,9.87,8.19,8.19,0,0,1-10.49-1.36c-.69-.76-1.32-1.57-2-2.35Z" transform="translate(-88.8 -92.14)"/><path class="cls-1" d="M336.45,447.86c-68.65-.34-124.07-56.18-123.71-124.63S269,199.36,337.16,199.75a124,124,0,0,1,123.68,125C460.42,392.84,404.48,448.2,336.45,447.86ZM444.87,323.91c.1-59.59-48.37-108.15-108-108.27-59.31-.11-108,48.44-108.06,107.83-.1,59.74,48.22,108.33,107.82,108.42A108.21,108.21,0,0,0,444.87,323.91Z" transform="translate(-88.8 -92.14)"/><path class="cls-1" d="M453.33,432.53a7.92,7.92,0,1,1-15.83-.39,7.92,7.92,0,0,1,15.83.39Z" transform="translate(-88.8 -92.14)"/><path class="cls-1" d="M336.57,348.65c-16.61-.13-28.56-16.53-23.32-32.32,1-2.92.47-4.53-1.64-6.5-4.76-4.47-9.31-9.16-13.89-13.82-4-4.06-4.35-8.59-1.08-12,3.42-3.57,8.18-3.35,12.3.7,4.76,4.67,9.51,9.34,14.12,14.16,1.76,1.83,3.23,2.54,5.87,1.51a21.46,21.46,0,0,1,15.65,0c2.62,1,4.06.44,5.86-1.39,10.95-11.11,22-22.12,33-33.15a46.1,46.1,0,0,1,5-4.63,7.86,7.86,0,0,1,10.24.8,7.76,7.76,0,0,1,.75,10.23,26.55,26.55,0,0,1-3,3.24c-11.59,11.6-23.14,23.23-34.81,34.74-1.85,1.82-2.28,3.27-1.43,5.83A24.7,24.7,0,0,1,336.57,348.65Zm.12-33.6A8.73,8.73,0,0,0,328,324a8.86,8.86,0,0,0,8.74,8.55,8.75,8.75,0,0,0,8.84-8.81A8.61,8.61,0,0,0,336.69,315.05Z" transform="translate(-88.8 -92.14)"/><path class="cls-1" d="M328.8,405.72a42.26,42.26,0,0,1,0-4.36,7.92,7.92,0,0,1,15.82,0,54.08,54.08,0,0,1,.06,7.95c-.26,4.85-3.64,8.07-8.15,8-4.32-.09-7.45-3.26-7.78-8-.08-1.19,0-2.38,0-3.58Z" transform="translate(-88.8 -92.14)"/><path class="cls-1" d="M418.51,316c1.46,0,2.94-.1,4.39,0a7.87,7.87,0,0,1,7.38,7.54,7.45,7.45,0,0,1-6.35,8,40.23,40.23,0,0,1-9.93.16c-4.52-.47-7.15-3.9-6.91-8.26s3.23-7.18,7.82-7.45c1.2-.07,2.4,0,3.6,0Z" transform="translate(-88.8 -92.14)"/><path class="cls-1" d="M344.8,242c0,1.47.11,2.94,0,4.39a7.81,7.81,0,0,1-7.32,7.16,7.49,7.49,0,0,1-8.14-6.13,42.28,42.28,0,0,1-.23-9.93,7.68,7.68,0,0,1,8.1-7.18c4.35.17,7.44,3.43,7.64,8.1.06,1.2,0,2.4,0,3.59Z" transform="translate(-88.8 -92.14)"/><path class="cls-1" d="M255.46,315.78c1.2,0,2.41-.09,3.6,0,4.55.41,7.45,3.45,7.53,7.77a7.58,7.58,0,0,1-7.34,7.92,54.76,54.76,0,0,1-8.78,0,7.69,7.69,0,0,1-7.2-7.69,7.82,7.82,0,0,1,7.4-7.94,47.8,47.8,0,0,1,4.79,0Z" transform="translate(-88.8 -92.14)"/></svg>