<svg id="Capa_1" data-name="Capa 1" xmlns="http://www.w3.org/2000/svg" viewBox="0 0 409.57 382.75"><defs><style>.cls-1{fill:#fff;}</style></defs><title>valores</title><path class="cls-1" d="M165.6,305.6c2.11-4.32,5.56-6,10.34-5.8,4.5.23,9,0,13.53.09,4.87.14,8.29,3.47,8.34,7.86s-3.5,8-8.53,8.09c-4.25.11-8.51-.2-12.74.09-4.87.34-8.48-1.34-10.94-5.53Z" transform="translate(-165.6 -103.1)"/><path class="cls-1" d="M370.61,219.16c31.86,0,63.71.12,95.57-.09,8.9,0,15.08,3.45,19.83,10.92,13.94,21.93,28.19,43.66,42.31,65.47,5.49,8.48,4.82,17-1.94,24.55q-70.61,79.28-141.22,158.53c-8.67,9.73-20.85,9.74-29.5,0Q285,399.31,214.45,320c-6.89-7.74-7.46-16.12-1.77-24.87q21.45-33,42.85-66.06c4.35-6.75,10.21-10,18.31-10C306.1,219.23,338.35,219.16,370.61,219.16Zm138.07,96.71h-5.49c-23.33,0-46.65.1-70-.09-3.85,0-5.51,1.09-6.65,4.83Q407,384.81,387.16,448.93c-.29.95-.45,1.95-.68,2.93l.69.41ZM353.46,452.07l.79-.55A12.52,12.52,0,0,0,354,450q-20.13-65.3-40.21-130.6c-.88-2.9-2.3-3.58-5.11-3.57-24,.1-48,.05-72,.07-1.13,0-2.26.16-4.26.31Zm-24-136L370,447.55l.95-.16c13.46-43.67,26.91-87.35,40.46-131.33Zm-63-74.3L229,299.41h74.75Zm208.07,0L437.2,299.52h74.71Zm-15-6.29H385c12.57,19.42,24.75,38.23,37.26,57.57Zm-178.15-.08c12.67,19.56,24.85,38.37,37.25,57.5,12.5-19.35,24.66-38.15,37.17-57.5Zm126,64.15-37-57.16-37,57.16Z" transform="translate(-165.6 -103.1)"/><path class="cls-1" d="M378.63,137.6c0,7.86,0,15.71,0,23.57,0,6.16-3.05,9.88-7.95,9.93s-8.07-3.74-8.08-9.8q0-24.56,0-49.12c0-5.06,2.61-8.4,6.74-9,5.19-.73,9.13,2.69,9.23,8.45.15,8.65,0,17.3,0,25.95Z" transform="translate(-165.6 -103.1)"/><path class="cls-1" d="M510.09,159.73c2.36,2,5.13,3.47,6.63,5.77,2,3.12.86,6.5-1.68,9.1-5.31,5.44-10.71,10.77-16.07,16.14-3.3,3.3-6.54,6.66-9.92,9.86-3.74,3.52-8.56,3.51-11.73.17s-3-7.91.48-11.44c8.5-8.63,17.05-17.22,25.73-25.68C505.06,162.16,507.28,161.37,510.09,159.73Z" transform="translate(-165.6 -103.1)"/><path class="cls-1" d="M232.39,160.49c1.19.65,3.46,1.34,5,2.81q13.17,12.82,26,26c3.55,3.61,3.55,8.15.37,11.43s-8,3.34-11.7-.31c-8.64-8.5-17.18-17.11-25.74-25.69-2.57-2.58-3.59-5.63-2.14-9.12C225.49,162.45,228,160.92,232.39,160.49Z" transform="translate(-165.6 -103.1)"/><path class="cls-1" d="M558.85,315.84c-2.66,0-5.32.13-8,0a8.07,8.07,0,0,1-7.89-7.91,7.89,7.89,0,0,1,7.77-8c5.57-.19,11.16-.2,16.73,0a7.77,7.77,0,0,1,7.68,8c-.09,4.29-3.35,7.58-8,7.83C564.43,316,561.64,315.84,558.85,315.84Z" transform="translate(-165.6 -103.1)"/><path class="cls-1" d="M370.55,198.15a7.92,7.92,0,0,1-.1-15.84,7.92,7.92,0,1,1,.1,15.84Z" transform="translate(-165.6 -103.1)"/></svg>