<svg id="Capa_1" data-name="Capa 1" xmlns="http://www.w3.org/2000/svg" viewBox="0 0 409.47 263.8"><defs><style>.cls-1{fill:#fff;}</style></defs><title>vision</title><path class="cls-1" d="M552.8,292.8c-5.59,16.37-16.29,29.58-27.31,42.32-34.95,40.4-78.19,67.79-130.58,79.37-43.54,9.62-86.43,6.3-127.91-10.46-49.68-20.09-89.11-52.67-117.88-98-7.68-12.11-7.75-23.84,0-35.93,33.15-51.84,79-87.47,137.91-104.84,55.7-16.41,110-10.66,161.84,15.67,40.72,20.68,73.61,50.16,97.81,89,2.56,4.11,4.12,8.84,6.14,13.28ZM259.27,207.68c-2,1-2.89,1.38-3.71,1.81-34.07,18.21-60.63,44.44-81.81,76.46-1.42,2.14-.41,3.38.64,4.94,16.84,25.23,37.45,46.77,62.45,64,47.21,32.57,99,43.44,154.84,30.36C448.28,372,490.07,337.34,522.12,290a4.65,4.65,0,0,0-.14-4.14c-16.73-25.61-37.2-47.66-62.64-64.85-6.89-4.66-14.15-8.77-21.24-13.13l-1,.75c13.18,23.42,16.48,48.31,10.55,74.18-6,26.31-21.42,46.46-43.44,61.59-34.66,23.81-83.64,22.34-117.29-3.42-17.73-13.56-30.85-30.64-37.1-52.26C241.84,260.93,244.73,234.14,259.27,207.68Zm19.34,47.71c-.42,8.41,3.31,13.72,10,14.23,7,.53,11.15-4.06,12-12.81A61.34,61.34,0,0,1,303,243.5a47.6,47.6,0,0,1,43.79-32.27c6.12-.21,10-2.66,11.59-7.39,2.75-8-3.25-14.92-12.64-14.6A69.52,69.52,0,0,0,278.61,255.39Z" transform="translate(-143.33 -156.02)"/></svg>